<?xml version="1.0" standalone="no"?>
<!DOCTYPE svg PUBLIC "-//W3C//DTD SVG 20010904//EN" "http://www.w3.org/TR/2001/REC-SVG-20010904/DTD/svg10.dtd">
<!-- Created using Krita: http://krita.org -->
<svg xmlns="http://www.w3.org/2000/svg" 
    xmlns:xlink="http://www.w3.org/1999/xlink"
    xmlns:krita="http://krita.org/namespaces/svg/krita"
    xmlns:sodipodi="http://sodipodi.sourceforge.net/DTD/sodipodi-0.dtd"
    width="36.864pt"
    height="36.864pt"
    viewBox="0 0 36.864 36.864">
<defs/>
<g id="Pokéball_1_" transform="matrix(0.0720000030994417 0 0 0.0720000030994417 0 0)" fill="none">
  <g id="Colours" fill="none">
   <path id="Down" transform="translate(81.1000000000001, 314.3)" fill="#ffffff" d="M216.5 66.6C176.1 66.6 142.4 38 134.4 0L0 0C9.5 110.5 102.2 197.2 215.1 197.2C328 197.2 420.8 110.5 430.2 0L298.6 0C290.6 38.1 256.9 66.6 216.5 66.6Z"/>
   <path id="Shadow_Down" transform="translate(345.6, 314.3)" fill="#dfdfdf" d="M0 191.6C89.6 170.6 157.7 93.9 165.7 0L112.7 0C107.4 85.2 62.7 157.4 0 191.6Z"/>
   <path id="Center" transform="translate(248.2, 247.6)" fill="#ffffff" d="M98.9 49.4L98.9 49.4C98.8 49.4 98.8 49.4 98.9 49.4C98.8 43.3 97.7 37.5 95.7 32.1C88.7 13.3 70.6 0 49.4 0C28.2 0 10.1 13.4 3.1 32.1C1.1 37.5 0 43.3 0 49.4C0 49.4 0 49.4 0 49.4L0.1 49.4C0.1 49.4 0.1 49.4 0.1 49.4C0.1 55.5 1.2 61.3 3.2 66.7C10.2 85.5 28.3 98.8 49.5 98.8C70.7 98.8 88.8 85.4 95.8 66.7C97.8 61.4 98.9 55.5 98.9 49.4C98.9 49.4 98.9 49.4 98.9 49.4Z"/>
   <path id="Up" transform="translate(83.9000000000001, 82.5)" fill="#ff1c1c" d="M213.8 130.7C254.2 130.7 287.9 159.3 295.9 197.3L430.3 197.3C420.8 86.7 328.1 0 215.1 0C102.1 0 9.5 86.7 0 197.2L131.7 197.2C139.7 159.2 173.4 130.7 213.8 130.7Z"/>
   <path id="Shadow_Up" transform="translate(343.6, 87.0999999999999)" fill="#df1818" d="M114.7 192.6L170.5 192.6C162.3 97.1 91.9 19.3 0 0C63.8 33.7 109.3 106.6 114.7 192.6Z"/>
  </g>
  <path id="Line" transform="translate(41.8999999999999, 41.3)" fill="#000000" d="M257.1 41.2C370.1 41.2 462.8 127.9 472.2 238.4L337.8 238.4C329.8 200.4 296.1 171.8 255.7 171.8C215.3 171.8 181.6 200.4 173.6 238.4L42 238.4C51.5 127.9 144.2 41.2 257.1 41.2ZM302 238.4C304 243.8 305.1 249.6 305.1 255.7C305.1 255.7 305.1 255.7 305.1 255.7L305.2 255.7C305.2 255.7 305.2 255.7 305.2 255.7C305.2 261.8 304.1 267.6 302.1 273C295.1 291.8 277 305.1 255.8 305.1C234.6 305.1 216.5 291.7 209.5 273C207.5 267.6 206.4 261.8 206.4 255.7C206.4 255.7 206.4 255.7 206.4 255.7L206.3 255.7C206.3 255.7 206.3 255.7 206.3 255.7C206.3 249.6 207.4 243.8 209.4 238.4C216.4 219.6 234.5 206.3 255.7 206.3C276.9 206.3 295 219.7 302 238.4ZM254.3 470.3C141.3 470.3 48.6 383.6 39.2 273.1L173.6 273.1C181.6 311.1 215.3 339.7 255.7 339.7C296.1 339.7 329.8 311.1 337.8 273.1L469.5 273.1C460 383.5 367.3 470.3 254.3 470.3ZM255.7 0C114.5 0 0 114.5 0 255.7C0 396.9 114.5 511.4 255.7 511.4C396.9 511.4 511.5 397 511.5 255.7C511.5 114.4 397 0 255.7 0Z"/>
 </g>
</svg>
