<?xml version="1.0" standalone="no"?>
<!DOCTYPE svg PUBLIC "-//W3C//DTD SVG 20010904//EN" "http://www.w3.org/TR/2001/REC-SVG-20010904/DTD/svg10.dtd">
<!-- Created using Krita: http://krita.org -->
<svg xmlns="http://www.w3.org/2000/svg" 
    xmlns:xlink="http://www.w3.org/1999/xlink"
    xmlns:krita="http://krita.org/namespaces/svg/krita"
    xmlns:sodipodi="http://sodipodi.sourceforge.net/DTD/sodipodi-0.dtd"
    width="42.912pt"
    height="42.84pt"
    viewBox="0 0 42.912 42.84">
<defs/>
<path id="Line" transform="matrix(0.072 0 0 0.072 3.0168 2.9736)" fill="#ffffff" d="M257.1 41.2C370.1 41.2 462.8 127.9 472.2 238.4L337.8 238.4C329.8 200.4 296.1 171.8 255.7 171.8C215.3 171.8 181.6 200.4 173.6 238.4L42 238.4C51.5 127.9 144.2 41.2 257.1 41.2ZM302 238.4C304 243.8 305.1 249.6 305.1 255.7C305.1 255.7 305.1 255.7 305.1 255.7L305.2 255.7C305.2 255.7 305.2 255.7 305.2 255.7C305.2 261.8 304.1 267.6 302.1 273C295.1 291.8 277 305.1 255.8 305.1C234.6 305.1 216.5 291.7 209.5 273C207.5 267.6 206.4 261.8 206.4 255.7C206.4 255.7 206.4 255.7 206.4 255.7L206.3 255.7C206.3 255.7 206.3 255.7 206.3 255.7C206.3 249.6 207.4 243.8 209.4 238.4C216.4 219.6 234.5 206.3 255.7 206.3C276.9 206.3 295 219.7 302 238.4ZM254.3 470.3C141.3 470.3 48.6 383.6 39.2 273.1L173.6 273.1C181.6 311.1 215.3 339.7 255.7 339.7C296.1 339.7 329.8 311.1 337.8 273.1L469.5 273.1C460 383.5 367.3 470.3 254.3 470.3ZM255.7 0C114.5 0 0 114.5 0 255.7C0 396.9 114.5 511.4 255.7 511.4C396.9 511.4 511.5 397 511.5 255.7C511.5 114.4 397 0 255.7 0Z"/>
</svg>
